<svg width="143" height="45" viewBox="0 0 143 45" fill="none" xmlns="http://www.w3.org/2000/svg">
<path d="M27 6H8C3.58172 6 0 9.58172 0 14V32C0 36.4183 3.58172 40 8 40H27C31.4183 40 35 36.4183 35 32V14C35 9.58172 31.4183 6 27 6Z" fill="#FF6B00"/>
<path d="M11.5106 12.2485H9.7137C8.39052 12.2485 7.31787 13.3811 7.31787 14.7783V18.8891M11.5106 12.2485H23.4897M11.5106 12.2485V18.8891M7.31787 18.8891H11.5106M7.31787 18.8891V27.1109M23.4897 12.2485H25.2866C26.6098 12.2485 27.6824 13.3811 27.6824 14.7783V18.8891M23.4897 12.2485V18.8891M11.5106 18.8891V23M7.31787 27.1109V31.2217C7.31787 32.6189 8.39052 33.7515 9.7137 33.7515H11.5106M7.31787 27.1109H11.5106M27.6824 18.8891V27.1109M27.6824 18.8891H23.4897M23.4897 18.8891V23M11.5106 23V27.1109M11.5106 23H23.4897M11.5106 33.7515H23.4897M11.5106 33.7515V27.1109M23.4897 33.7515H25.2866C26.6098 33.7515 27.6824 32.6189 27.6824 31.2217V27.1109M23.4897 33.7515V27.1109M27.6824 27.1109H23.4897M23.4897 27.1109V23" stroke="white" stroke-width="1.25" stroke-linecap="round"/>
<path d="M60.8799 12.06L53.1999 33H48.0999L40.4199 12.06H44.9199L50.6799 28.71L56.4099 12.06H60.8799ZM70.718 12.06C72.918 12.06 74.848 12.49 76.508 13.35C78.188 14.21 79.478 15.44 80.378 17.04C81.298 18.62 81.758 20.46 81.758 22.56C81.758 24.66 81.298 26.5 80.378 28.08C79.478 29.64 78.188 30.85 76.508 31.71C74.848 32.57 72.918 33 70.718 33H63.398V12.06H70.718ZM70.568 29.43C72.768 29.43 74.468 28.83 75.668 27.63C76.868 26.43 77.468 24.74 77.468 22.56C77.468 20.38 76.868 18.68 75.668 17.46C74.468 16.22 72.768 15.6 70.568 15.6H67.598V29.43H70.568ZM83.8819 22.5C83.8819 20.44 84.3419 18.6 85.2619 16.98C86.2019 15.34 87.4719 14.07 89.0719 13.17C90.6919 12.25 92.5019 11.79 94.5019 11.79C96.8419 11.79 98.8919 12.39 100.652 13.59C102.412 14.79 103.642 16.45 104.342 18.57H99.5119C99.0319 17.57 98.3519 16.82 97.4719 16.32C96.6119 15.82 95.6119 15.57 94.4719 15.57C93.2519 15.57 92.1619 15.86 91.2019 16.44C90.2619 17 89.5219 17.8 88.9819 18.84C88.4619 19.88 88.2019 21.1 88.2019 22.5C88.2019 23.88 88.4619 25.1 88.9819 26.16C89.5219 27.2 90.2619 28.01 91.2019 28.59C92.1619 29.15 93.2519 29.43 94.4719 29.43C95.6119 29.43 96.6119 29.18 97.4719 28.68C98.3519 28.16 99.0319 27.4 99.5119 26.4H104.342C103.642 28.54 102.412 30.21 100.652 31.41C98.9119 32.59 96.8619 33.18 94.5019 33.18C92.5019 33.18 90.6919 32.73 89.0719 31.83C87.4719 30.91 86.2019 29.64 85.2619 28.02C84.3419 26.4 83.8819 24.56 83.8819 22.5ZM112.129 10.8V33H107.929V10.8H112.129ZM118.409 14.4C117.669 14.4 117.049 14.17 116.549 13.71C116.069 13.23 115.829 12.64 115.829 11.94C115.829 11.24 116.069 10.66 116.549 10.2C117.049 9.72 117.669 9.48 118.409 9.48C119.149 9.48 119.759 9.72 120.239 10.2C120.739 10.66 120.989 11.24 120.989 11.94C120.989 12.64 120.739 13.23 120.239 13.71C119.759 14.17 119.149 14.4 118.409 14.4ZM120.479 16.38V33H116.279V16.38H120.479ZM128.829 18.78C129.369 18.02 130.109 17.39 131.049 16.89C132.009 16.37 133.099 16.11 134.319 16.11C135.739 16.11 137.019 16.46 138.159 17.16C139.319 17.86 140.229 18.86 140.889 20.16C141.569 21.44 141.909 22.93 141.909 24.63C141.909 26.33 141.569 27.84 140.889 29.16C140.229 30.46 139.319 31.47 138.159 32.19C137.019 32.91 135.739 33.27 134.319 33.27C133.099 33.27 132.019 33.02 131.079 32.52C130.159 32.02 129.409 31.39 128.829 30.63V40.92H124.629V16.38H128.829V18.78ZM137.619 24.63C137.619 23.63 137.409 22.77 136.989 22.05C136.589 21.31 136.049 20.75 135.369 20.37C134.709 19.99 133.989 19.8 133.209 19.8C132.449 19.8 131.729 20 131.049 20.4C130.389 20.78 129.849 21.34 129.429 22.08C129.029 22.82 128.829 23.69 128.829 24.69C128.829 25.69 129.029 26.56 129.429 27.3C129.849 28.04 130.389 28.61 131.049 29.01C131.729 29.39 132.449 29.58 133.209 29.58C133.989 29.58 134.709 29.38 135.369 28.98C136.049 28.58 136.589 28.01 136.989 27.27C137.409 26.53 137.619 25.65 137.619 24.63Z" fill="#FF6B00"/>
</svg>
