<svg width="35" height="31" viewBox="0 0 35 31" fill="none" xmlns="http://www.w3.org/2000/svg">
<rect width="35" height="30.6613" rx="8" fill="#FF6B00"/>
<path d="M11.5106 5.63492H9.71371C8.39052 5.63492 7.31787 6.65631 7.31787 7.91626V11.6234M11.5106 5.63492H23.4898M11.5106 5.63492V11.6234M7.31787 11.6234H11.5106M7.31787 11.6234V19.0378M23.4898 5.63492H25.2866C26.6098 5.63492 27.6825 6.65631 27.6825 7.91626V11.6234M23.4898 5.63492V11.6234M11.5106 11.6234V15.3306M11.5106 25.0263H9.71371C8.39052 25.0263 7.31787 24.005 7.31787 22.745V19.0378M11.5106 25.0263H23.4898M11.5106 25.0263V19.0378M7.31787 19.0378H11.5106M23.4898 25.0263H25.2866C26.6098 25.0263 27.6825 24.005 27.6825 22.745V19.0378M23.4898 25.0263V19.0378M11.5106 19.0378V15.3306M27.6825 11.6234V19.0378M27.6825 11.6234H23.4898M23.4898 11.6234V15.3306M27.6825 19.0378H23.4898M23.4898 19.0378V15.3306M23.4898 15.3306H11.5106" stroke="white" stroke-width="1.25" stroke-linecap="round"/>
</svg>
